<svg width="404" height="136" viewBox="0 0 404 136" fill="none" xmlns="http://www.w3.org/2000/svg">
<g opacity="0.9">
<g opacity="0.9">
<rect x="4" width="60" height="60" rx="8" fill="#FCFDFD"/>
<path d="M41 18H27C26.4477 18 26 18.4477 26 19V41C26 41.5523 26.4477 42 27 42H41C41.5523 42 42 41.5523 42 41V19C42 18.4477 41.5523 18 41 18Z" stroke="#7C4FC4" stroke-width="2" stroke-linecap="round" stroke-linejoin="round"/>
<path d="M34 28C35.6569 28 37 26.6569 37 25C37 23.3431 35.6569 22 34 22C32.3431 22 31 23.3431 31 25C31 26.6569 32.3431 28 34 28Z" stroke="#7C4FC4" stroke-width="2" stroke-linecap="round" stroke-linejoin="round"/>
<path d="M34 38C35.6569 38 37 36.6569 37 35C37 33.3431 35.6569 32 34 32C32.3431 32 31 33.3431 31 35C31 36.6569 32.3431 38 34 38Z" fill="#7C4FC4" stroke="#7C4FC4" stroke-width="2" stroke-linecap="round" stroke-linejoin="round"/>
<path d="M42 23H45" stroke="#7C4FC4" stroke-width="2" stroke-linecap="round" stroke-linejoin="round"/>
<path d="M42 33H45" stroke="#7C4FC4" stroke-width="2" stroke-linecap="round" stroke-linejoin="round"/>
<path d="M23 23H26" stroke="#7C4FC4" stroke-width="2" stroke-linecap="round" stroke-linejoin="round"/>
<path d="M23 33H26" stroke="#7C4FC4" stroke-width="2" stroke-linecap="round" stroke-linejoin="round"/>
<rect x="4.5" y="0.5" width="59" height="59" rx="7.5" stroke="black" stroke-opacity="0.12"/>
</g>
<g opacity="0.9">
<rect x="88" width="60" height="60" rx="8" fill="#FCFDFD"/>
<path d="M123 28V26.5C123 25.837 122.737 25.2011 122.268 24.7322C121.799 24.2634 121.163 24 120.5 24C119.837 24 119.201 24.2634 118.732 24.7322C118.263 25.2011 118 25.837 118 26.5V18.5C118 17.837 117.737 17.2011 117.268 16.7322C116.799 16.2634 116.163 16 115.5 16C114.837 16 114.201 16.2634 113.732 16.7322C113.263 17.2011 113 17.837 113 18.5V33.6625L110.263 28.9125C109.931 28.3373 109.385 27.9174 108.743 27.7451C108.102 27.5728 107.419 27.6622 106.844 27.9937C106.269 28.3253 105.849 28.8717 105.676 29.5128C105.504 30.154 105.594 30.8373 105.925 31.4125C110 40 112.475 43 118 43C119.313 43 120.614 42.7413 121.827 42.2388C123.04 41.7362 124.143 40.9997 125.071 40.0711C126 39.1425 126.736 38.0401 127.239 36.8268C127.741 35.6136 128 34.3132 128 33V28C128 27.337 127.737 26.7011 127.268 26.2322C126.799 25.7634 126.163 25.5 125.5 25.5C124.837 25.5 124.201 25.7634 123.732 26.2322C123.263 26.7011 123 27.337 123 28V28Z" stroke="#7C4FC4" stroke-width="2" stroke-linecap="round" stroke-linejoin="round"/>
<rect x="88.5" y="0.5" width="59" height="59" rx="7.5" stroke="black" stroke-opacity="0.12"/>
</g>
<rect x="172" width="60" height="60" rx="8" fill="#FCFDFD"/>
<path d="M212 19H208C207.448 19 207 19.4477 207 20V24C207 24.5523 207.448 25 208 25H212C212.552 25 213 24.5523 213 24V20C213 19.4477 212.552 19 212 19Z" stroke="#7C4FC4" stroke-width="2" stroke-linecap="round" stroke-linejoin="round"/>
<path d="M196 19H192C191.448 19 191 19.4477 191 20V24C191 24.5523 191.448 25 192 25H196C196.552 25 197 24.5523 197 24V20C197 19.4477 196.552 19 196 19Z" stroke="#7C4FC4" stroke-width="2" stroke-linecap="round" stroke-linejoin="round"/>
<path d="M212 35H208C207.448 35 207 35.4477 207 36V40C207 40.5523 207.448 41 208 41H212C212.552 41 213 40.5523 213 40V36C213 35.4477 212.552 35 212 35Z" stroke="#7C4FC4" stroke-width="2" stroke-linecap="round" stroke-linejoin="round"/>
<path d="M196 35H192C191.448 35 191 35.4477 191 36V40C191 40.5523 191.448 41 192 41H196C196.552 41 197 40.5523 197 40V36C197 35.4477 196.552 35 196 35Z" stroke="#7C4FC4" stroke-width="2" stroke-linecap="round" stroke-linejoin="round"/>
<path d="M194 35V25" stroke="#7C4FC4" stroke-width="2" stroke-linecap="round" stroke-linejoin="round"/>
<path d="M207 38H197" stroke="#7C4FC4" stroke-width="2" stroke-linecap="round" stroke-linejoin="round"/>
<path d="M210 25V35" stroke="#7C4FC4" stroke-width="2" stroke-linecap="round" stroke-linejoin="round"/>
<path d="M197 22H207" stroke="#7C4FC4" stroke-width="2" stroke-linecap="round" stroke-linejoin="round"/>
<rect x="172.5" y="0.5" width="59" height="59" rx="7.5" stroke="black" stroke-opacity="0.12"/>
<rect x="256" width="60" height="60" rx="8" fill="#FCFDFD"/>
<path d="M286 20.5C286 19.837 286.263 19.2011 286.732 18.7322C287.201 18.2634 287.837 18 288.5 18C289.163 18 289.799 18.2634 290.268 18.7322C290.737 19.2011 291 19.837 291 20.5V28" stroke="#7C4FC4" stroke-width="2" stroke-linecap="round" stroke-linejoin="round"/>
<path d="M281 22.5V18.5C281 17.837 281.263 17.2011 281.732 16.7322C282.201 16.2634 282.837 16 283.5 16C284.163 16 284.799 16.2634 285.268 16.7322C285.737 17.2011 286 17.837 286 18.5V27" stroke="#7C4FC4" stroke-width="2" stroke-linecap="round" stroke-linejoin="round"/>
<path d="M286 35.5C286 34.1739 286.527 32.9021 287.464 31.9645C288.402 31.0268 289.674 30.5 291 30.5V28C291 27.337 291.263 26.7011 291.732 26.2322C292.201 25.7634 292.837 25.5 293.5 25.5C294.163 25.5 294.799 25.7634 295.268 26.2322C295.737 26.7011 296 27.337 296 28V33C296 35.6522 294.946 38.1957 293.071 40.0711C291.196 41.9464 288.652 43 286 43C283.348 43 280.804 41.9464 278.929 40.0711C277.054 38.1957 276 35.6522 276 33V22.5C276 21.837 276.263 21.2011 276.732 20.7322C277.201 20.2634 277.837 20 278.5 20C279.163 20 279.799 20.2634 280.268 20.7322C280.737 21.2011 281 21.837 281 22.5V28" stroke="#7C4FC4" stroke-width="2" stroke-linecap="round" stroke-linejoin="round"/>
<rect x="256.5" y="0.5" width="59" height="59" rx="7.5" stroke="black" stroke-opacity="0.12"/>
<rect x="340" width="60" height="60" rx="8" fill="#FCFDFD"/>
<path d="M363 26.5H358C357.448 26.5 357 26.9477 357 27.5V32.5C357 33.0523 357.448 33.5 358 33.5H363C363.552 33.5 364 33.0523 364 32.5V27.5C364 26.9477 363.552 26.5 363 26.5Z" stroke="#7C4FC4" stroke-width="2" stroke-linecap="round" stroke-linejoin="round"/>
<path d="M381 19H375C374.448 19 374 19.4477 374 20V26C374 26.5523 374.448 27 375 27H381C381.552 27 382 26.5523 382 26V20C382 19.4477 381.552 19 381 19Z" stroke="#7C4FC4" stroke-width="2" stroke-linecap="round" stroke-linejoin="round"/>
<path d="M381 33H375C374.448 33 374 33.4477 374 34V40C374 40.5523 374.448 41 375 41H381C381.552 41 382 40.5523 382 40V34C382 33.4477 381.552 33 381 33Z" stroke="#7C4FC4" stroke-width="2" stroke-linecap="round" stroke-linejoin="round"/>
<path d="M364 30H369" stroke="#7C4FC4" stroke-width="2" stroke-linecap="round" stroke-linejoin="round"/>
<path d="M374 37H372C371.606 37.0017 371.215 36.9252 370.85 36.775C370.485 36.6249 370.154 36.4039 369.875 36.125C369.596 35.8461 369.375 35.5148 369.225 35.15C369.075 34.7853 368.998 34.3945 369 34V26C368.998 25.6056 369.075 25.2147 369.225 24.85C369.375 24.4853 369.596 24.1539 369.875 23.875C370.154 23.5961 370.485 23.3752 370.85 23.225C371.215 23.0748 371.606 22.9984 372 23H374" stroke="#7C4FC4" stroke-width="2" stroke-linecap="round" stroke-linejoin="round"/>
<rect x="340.5" y="0.5" width="59" height="59" rx="7.5" stroke="black" stroke-opacity="0.12"/>
<g opacity="0.9">
<rect x="4" y="76" width="60" height="60" rx="8" fill="#FCFDFD"/>
<path d="M29 119H39" stroke="#7C4FC4" stroke-width="2" stroke-linecap="round" stroke-linejoin="round"/>
<path d="M27.8375 110.875C26.647 109.949 25.6828 108.765 25.0179 107.411C24.353 106.058 24.0049 104.57 24 103.062C23.975 97.6374 28.3375 93.1249 33.7625 92.9999C35.8621 92.9501 37.924 93.5626 39.6559 94.7506C41.3878 95.9385 42.7018 97.6416 43.4114 99.6183C44.121 101.595 44.1902 103.745 43.6093 105.763C43.0284 107.781 41.8268 109.565 40.175 110.862C39.8101 111.144 39.5145 111.506 39.3109 111.92C39.1072 112.334 39.0009 112.789 39 113.25V114C39 114.265 38.8946 114.519 38.7071 114.707C38.5196 114.895 38.2652 115 38 115H30C29.7348 115 29.4804 114.895 29.2929 114.707C29.1053 114.519 29 114.265 29 114V113.25C28.9969 112.792 28.8907 112.341 28.6895 111.93C28.4883 111.519 28.1971 111.158 27.8375 110.875V110.875Z" stroke="#7C4FC4" stroke-width="2" stroke-linecap="round" stroke-linejoin="round"/>
<path d="M35.0125 97.1001C36.2347 97.3073 37.3624 97.8887 38.2401 98.7642C39.1178 99.6396 39.7021 100.766 39.9125 101.988" stroke="#7C4FC4" stroke-width="2" stroke-linecap="round" stroke-linejoin="round"/>
<rect x="4.5" y="76.5" width="59" height="59" rx="7.5" stroke="black" stroke-opacity="0.12"/>
</g>
<g opacity="0.9">
<rect x="88" y="76" width="60" height="60" rx="8" fill="#FCFDFD"/>
<path d="M118 118C124.627 118 130 112.627 130 106C130 99.3726 124.627 94 118 94C111.373 94 106 99.3726 106 106C106 112.627 111.373 118 118 118Z" stroke="#7C4FC4" stroke-width="2" stroke-linecap="round" stroke-linejoin="round"/>
<path d="M124 116.4V112L118 99L112 112V116.4" stroke="#7C4FC4" stroke-width="2" stroke-linecap="round" stroke-linejoin="round"/>
<path d="M118 114C118 113.204 118.316 112.441 118.879 111.879C119.441 111.316 120.204 111 121 111C121.796 111 122.559 111.316 123.121 111.879C123.684 112.441 124 113.204 124 114" stroke="#7C4FC4" stroke-width="2" stroke-linecap="round" stroke-linejoin="round"/>
<path d="M118 118V114C118 113.204 117.684 112.441 117.121 111.879C116.559 111.316 115.796 111 115 111C114.204 111 113.441 111.316 112.879 111.879C112.316 112.441 112 113.204 112 114" stroke="#7C4FC4" stroke-width="2" stroke-linecap="round" stroke-linejoin="round"/>
<rect x="88.5" y="76.5" width="59" height="59" rx="7.5" stroke="black" stroke-opacity="0.12"/>
</g>
<rect x="172" y="76" width="60" height="60" rx="8" fill="#FCFDFD"/>
<path d="M213 99H191C190.448 99 190 99.4477 190 100V116C190 116.552 190.448 117 191 117H213C213.552 117 214 116.552 214 116V100C214 99.4477 213.552 99 213 99Z" stroke="#7C4FC4" stroke-width="2" stroke-linecap="round" stroke-linejoin="round"/>
<path d="M207 99V97C207 96.4696 206.789 95.9609 206.414 95.5858C206.039 95.2107 205.53 95 205 95H199C198.47 95 197.961 95.2107 197.586 95.5858C197.211 95.9609 197 96.4696 197 97V99" stroke="#7C4FC4" stroke-width="2" stroke-linecap="round" stroke-linejoin="round"/>
<path d="M202 104.5V111.5" stroke="#7C4FC4" stroke-width="2" stroke-linecap="round" stroke-linejoin="round"/>
<path d="M205.5 108H198.5" stroke="#7C4FC4" stroke-width="2" stroke-linecap="round" stroke-linejoin="round"/>
<rect x="172.5" y="76.5" width="59" height="59" rx="7.5" stroke="black" stroke-opacity="0.12"/>
<rect x="256" y="76" width="60" height="60" rx="8" fill="#FCFDFD"/>
<path d="M295 104V115.112C295 115.348 294.906 115.574 294.74 115.74C294.574 115.906 294.348 116 294.112 116H275C274.735 116 274.48 115.895 274.293 115.707C274.105 115.52 274 115.265 274 115V101C274 100.735 274.105 100.48 274.293 100.293C274.48 100.105 274.735 100 275 100H280.663C280.879 100.001 281.089 100.071 281.262 100.2L284.738 102.8C284.911 102.929 285.121 102.999 285.337 103H294C294.265 103 294.52 103.105 294.707 103.293C294.895 103.48 295 103.735 295 104Z" stroke="#7C4FC4" stroke-width="2" stroke-linecap="round" stroke-linejoin="round"/>
<path d="M295 104V115.112C295 115.348 294.906 115.574 294.74 115.74C294.574 115.906 294.348 116 294.112 116H275C274.735 116 274.48 115.895 274.293 115.707C274.105 115.52 274 115.265 274 115V101C274 100.735 274.105 100.48 274.293 100.293C274.48 100.105 274.735 100 275 100H280.663C280.879 100.001 281.089 100.071 281.262 100.2L284.738 102.8C284.911 102.929 285.121 102.999 285.337 103H294C294.265 103 294.52 103.105 294.707 103.293C294.895 103.48 295 103.735 295 104Z" stroke="#7C4FC4" stroke-width="2" stroke-linecap="round" stroke-linejoin="round"/>
<path d="M278 100V97C278 96.7348 278.105 96.4804 278.293 96.2929C278.48 96.1054 278.735 96 279 96H284.663C284.879 96.0009 285.089 96.071 285.262 96.2L288.737 98.8C288.911 98.929 289.121 98.9991 289.337 99H298C298.265 99 298.52 99.1054 298.707 99.2929C298.895 99.4804 299 99.7348 299 100V111.112C299 111.348 298.906 111.574 298.74 111.74C298.574 111.906 298.348 112 298.112 112H295" stroke="#7C4FC4" stroke-width="2" stroke-linecap="round" stroke-linejoin="round"/>
<rect x="256.5" y="76.5" width="59" height="59" rx="7.5" stroke="black" stroke-opacity="0.12"/>
<rect x="340" y="76" width="60" height="60" rx="8" fill="#FCFDFD"/>
<path d="M363.975 102.462H357.975V96.4624" stroke="#7C4FC4" stroke-width="2" stroke-linecap="round" stroke-linejoin="round"/>
<path d="M362.225 113.775C363.763 115.314 365.723 116.363 367.857 116.788C369.991 117.213 372.203 116.996 374.214 116.164C376.224 115.331 377.943 113.921 379.152 112.112C380.361 110.303 381.006 108.176 381.006 106C381.006 103.824 380.361 101.697 379.152 99.8878C377.943 98.0787 376.224 96.6688 374.214 95.8365C372.203 95.0042 369.991 94.7869 367.857 95.212C365.723 95.6372 363.763 96.6857 362.225 98.225L357.975 102.463" stroke="#7C4FC4" stroke-width="2" stroke-linecap="round" stroke-linejoin="round"/>
<rect x="340.5" y="76.5" width="59" height="59" rx="7.5" stroke="black" stroke-opacity="0.12"/>
</g>
</svg>
