<svg width="428" height="136" viewBox="0 0 428 136" fill="none" xmlns="http://www.w3.org/2000/svg">
<g opacity="0.9" filter="url(#filter0_d_576_4164)">
<g opacity="0.9">
<path d="M46 80C52.6274 80 58 74.6274 58 68C58 61.3726 52.6274 56 46 56C39.3726 56 34 61.3726 34 68C34 74.6274 39.3726 80 46 80Z" stroke="#7C4FC4" stroke-width="2" stroke-linecap="round" stroke-linejoin="round"/>
<path d="M52 78.4V74L46 61L40 74V78.4" stroke="#7C4FC4" stroke-width="2" stroke-linecap="round" stroke-linejoin="round"/>
<path d="M46 76C46 75.2044 46.3161 74.4413 46.8787 73.8787C47.4413 73.3161 48.2044 73 49 73C49.7956 73 50.5587 73.3161 51.1213 73.8787C51.6839 74.4413 52 75.2044 52 76" stroke="#7C4FC4" stroke-width="2" stroke-linecap="round" stroke-linejoin="round"/>
<path d="M46 80V76C46 75.2044 45.6839 74.4413 45.1213 73.8787C44.5587 73.3161 43.7956 73 43 73C42.2044 73 41.4413 73.3161 40.8787 73.8787C40.3161 74.4413 40 75.2044 40 76" stroke="#7C4FC4" stroke-width="2" stroke-linecap="round" stroke-linejoin="round"/>
<rect x="16.5" y="38.5" width="59" height="59" rx="7.5" stroke="black" stroke-opacity="0.12"/>
</g>
<g opacity="0.9">
<path d="M130 55V75.675" stroke="#7C4FC4" stroke-width="2" stroke-linecap="round" stroke-linejoin="round"/>
<path d="M141.525 66.5751L142.613 65.6626C143.35 65.0501 142.975 63.8126 142.013 63.7501L140.575 63.6626" stroke="#7C4FC4" stroke-width="2" stroke-linecap="round" stroke-linejoin="round"/>
<path d="M137.013 73.1127L136.6 71.4752C136.551 71.2763 136.558 71.0675 136.623 70.8729C136.687 70.6783 136.805 70.5058 136.962 70.3752L138.212 69.3252" stroke="#7C4FC4" stroke-width="2" stroke-linecap="round" stroke-linejoin="round"/>
<path d="M136.275 63.375L134.637 63.275C134.436 63.2633 134.243 63.1933 134.081 63.0734C133.919 62.9535 133.795 62.789 133.725 62.6L133.087 61L130.975 55.675C130.902 55.4749 130.77 55.302 130.595 55.1799C130.421 55.0577 130.213 54.9922 130 54.9922C129.787 54.9922 129.579 55.0577 129.405 55.1799C129.23 55.302 129.098 55.4749 129.025 55.675L126.275 62.6C126.205 62.789 126.081 62.9535 125.919 63.0734C125.757 63.1933 125.564 63.2633 125.362 63.275L117.987 63.75C117.025 63.8125 116.65 65.05 117.387 65.6625L123.037 70.375C123.195 70.5056 123.313 70.6781 123.377 70.8728C123.441 71.0674 123.449 71.2762 123.4 71.475L121.712 78.125C121.425 79.25 122.625 80.1625 123.587 79.55L129.45 75.8375C129.614 75.733 129.805 75.6775 130 75.6775C130.195 75.6775 130.386 75.733 130.55 75.8375L131.987 76.75" stroke="#7C4FC4" stroke-width="2" stroke-linecap="round" stroke-linejoin="round"/>
<path d="M135.625 79.0626L136.85 79.8376C137.663 80.3501 138.662 79.5876 138.425 78.6501L138.075 77.2876" stroke="#7C4FC4" stroke-width="2" stroke-linecap="round" stroke-linejoin="round"/>
<rect x="100.5" y="38.5" width="59" height="59" rx="7.5" stroke="black" stroke-opacity="0.12"/>
</g>
<path d="M212.5 72C213.881 72 215 70.8807 215 69.5C215 68.1193 213.881 67 212.5 67C211.119 67 210 68.1193 210 69.5C210 70.8807 211.119 72 212.5 72Z" stroke="#7C4FC4" stroke-width="2" stroke-linecap="round" stroke-linejoin="round"/>
<path d="M202 80.0002L210.738 71.2627" stroke="#7C4FC4" stroke-width="2" stroke-linecap="round" stroke-linejoin="round"/>
<path d="M202 80L219.438 77.1C219.61 77.0706 219.771 76.9962 219.905 76.8842C220.039 76.7722 220.141 76.6267 220.2 76.4625L223 69L213 59L205.537 61.8C205.373 61.8626 205.228 61.9671 205.116 62.103C205.004 62.2389 204.93 62.4016 204.9 62.575L202 80Z" stroke="#7C4FC4" stroke-width="2" stroke-linecap="round" stroke-linejoin="round"/>
<path d="M223 68.9999L226.288 65.7124C226.382 65.6193 226.457 65.5084 226.508 65.3861C226.559 65.2638 226.586 65.1325 226.586 64.9999C226.586 64.8673 226.559 64.736 226.508 64.6137C226.457 64.4914 226.382 64.3804 226.288 64.2874L217.712 55.7124C217.619 55.6179 217.509 55.5429 217.386 55.4917C217.264 55.4404 217.133 55.4141 217 55.4141C216.867 55.4141 216.736 55.4404 216.614 55.4917C216.491 55.5429 216.381 55.6179 216.288 55.7124L213 58.9999" stroke="#7C4FC4" stroke-width="2" stroke-linecap="round" stroke-linejoin="round"/>
<rect x="184.5" y="38.5" width="59" height="59" rx="7.5" stroke="black" stroke-opacity="0.12"/>
<path d="M298 59C288 59 284 68 284 68C284 68 288 77 298 77C308 77 312 68 312 68C312 68 308 59 298 59Z" stroke="#7C4FC4" stroke-width="2" stroke-linecap="round" stroke-linejoin="round"/>
<path d="M298 73C300.761 73 303 70.7614 303 68C303 65.2386 300.761 63 298 63C295.239 63 293 65.2386 293 68C293 70.7614 295.239 73 298 73Z" stroke="#7C4FC4" stroke-width="2" stroke-linecap="round" stroke-linejoin="round"/>
<rect x="268.5" y="38.5" width="59" height="59" rx="7.5" stroke="black" stroke-opacity="0.12"/>
<path d="M385 76L376 59L367 76" stroke="#7C4FC4" stroke-width="2" stroke-linecap="round" stroke-linejoin="round"/>
<path d="M392 76.3623C394.209 76.3623 396 74.7953 396 72.8623C396 70.9293 394.209 69.3623 392 69.3623C389.791 69.3623 388 70.9293 388 72.8623C388 74.7953 389.791 76.3623 392 76.3623Z" stroke="#7C4FC4" stroke-width="2" stroke-linecap="round" stroke-linejoin="round"/>
<path d="M389 66.0501C389.806 65.2764 390.883 64.85 392 64.8626C394.213 64.8626 396 66.4251 396 68.3626V76.0001" stroke="#7C4FC4" stroke-width="2" stroke-linecap="round" stroke-linejoin="round"/>
<path d="M382.35 71H369.65" stroke="#7C4FC4" stroke-width="2" stroke-linecap="round" stroke-linejoin="round"/>
<rect x="352.5" y="38.5" width="59" height="59" rx="7.5" stroke="black" stroke-opacity="0.12"/>
</g>
<defs>
<filter id="filter0_d_576_4164" x="0" y="-12" width="428" height="168" filterUnits="userSpaceOnUse" color-interpolation-filters="sRGB">
<feFlood flood-opacity="0" result="BackgroundImageFix"/>
<feColorMatrix in="SourceAlpha" type="matrix" values="0 0 0 0 0 0 0 0 0 0 0 0 0 0 0 0 0 0 127 0" result="hardAlpha"/>
<feOffset dy="4"/>
<feGaussianBlur stdDeviation="8"/>
<feComposite in2="hardAlpha" operator="out"/>
<feColorMatrix type="matrix" values="0 0 0 0 0.054902 0 0 0 0 0.0196078 0 0 0 0 0.156863 0 0 0 0.04 0"/>
<feBlend mode="normal" in2="BackgroundImageFix" result="effect1_dropShadow_576_4164"/>
<feBlend mode="normal" in="SourceGraphic" in2="effect1_dropShadow_576_4164" result="shape"/>
</filter>
</defs>
</svg>
