<svg width="396" height="136" viewBox="0 0 396 136" fill="none" xmlns="http://www.w3.org/2000/svg">
<g opacity="0.9">
<g opacity="0.9">
<rect y="38" width="60" height="60" rx="8" fill="#FCFDFD"/>
<path d="M30 80C36.6274 80 42 74.6274 42 68C42 61.3726 36.6274 56 30 56C23.3726 56 18 61.3726 18 68C18 74.6274 23.3726 80 30 80Z" stroke="#7C4FC4" stroke-width="2" stroke-linecap="round" stroke-linejoin="round"/>
<path d="M36 78.4V74L30 61L24 74V78.4" stroke="#7C4FC4" stroke-width="2" stroke-linecap="round" stroke-linejoin="round"/>
<path d="M30 76C30 75.2044 30.3161 74.4413 30.8787 73.8787C31.4413 73.3161 32.2044 73 33 73C33.7956 73 34.5587 73.3161 35.1213 73.8787C35.6839 74.4413 36 75.2044 36 76" stroke="#7C4FC4" stroke-width="2" stroke-linecap="round" stroke-linejoin="round"/>
<path d="M30 80V76C30 75.2044 29.6839 74.4413 29.1213 73.8787C28.5587 73.3161 27.7956 73 27 73C26.2044 73 25.4413 73.3161 24.8787 73.8787C24.3161 74.4413 24 75.2044 24 76" stroke="#7C4FC4" stroke-width="2" stroke-linecap="round" stroke-linejoin="round"/>
<rect x="0.5" y="38.5" width="59" height="59" rx="7.5" stroke="black" stroke-opacity="0.12"/>
</g>
<g opacity="0.9">
<rect x="84" y="38" width="60" height="60" rx="8" fill="#FCFDFD"/>
<path d="M114 55V75.675" stroke="#7C4FC4" stroke-width="2" stroke-linecap="round" stroke-linejoin="round"/>
<path d="M125.525 66.5751L126.613 65.6626C127.35 65.0501 126.975 63.8126 126.013 63.7501L124.575 63.6626" stroke="#7C4FC4" stroke-width="2" stroke-linecap="round" stroke-linejoin="round"/>
<path d="M121.013 73.1127L120.6 71.4752C120.551 71.2763 120.558 71.0675 120.623 70.8729C120.687 70.6783 120.805 70.5058 120.962 70.3752L122.212 69.3252" stroke="#7C4FC4" stroke-width="2" stroke-linecap="round" stroke-linejoin="round"/>
<path d="M120.275 63.375L118.637 63.275C118.436 63.2633 118.243 63.1933 118.081 63.0734C117.919 62.9535 117.795 62.789 117.725 62.6L117.087 61L114.975 55.675C114.902 55.4749 114.77 55.302 114.595 55.1799C114.421 55.0577 114.213 54.9922 114 54.9922C113.787 54.9922 113.579 55.0577 113.405 55.1799C113.23 55.302 113.098 55.4749 113.025 55.675L110.275 62.6C110.205 62.789 110.081 62.9535 109.919 63.0734C109.757 63.1933 109.564 63.2633 109.362 63.275L101.987 63.75C101.025 63.8125 100.65 65.05 101.387 65.6625L107.037 70.375C107.195 70.5056 107.313 70.6781 107.377 70.8728C107.441 71.0674 107.449 71.2762 107.4 71.475L105.712 78.125C105.425 79.25 106.625 80.1625 107.587 79.55L113.45 75.8375C113.614 75.733 113.805 75.6775 114 75.6775C114.195 75.6775 114.386 75.733 114.55 75.8375L115.987 76.75" stroke="#7C4FC4" stroke-width="2" stroke-linecap="round" stroke-linejoin="round"/>
<path d="M119.625 79.0626L120.85 79.8376C121.663 80.3501 122.662 79.5876 122.425 78.6501L122.075 77.2876" stroke="#7C4FC4" stroke-width="2" stroke-linecap="round" stroke-linejoin="round"/>
<rect x="84.5" y="38.5" width="59" height="59" rx="7.5" stroke="black" stroke-opacity="0.12"/>
</g>
<rect x="168" y="38" width="60" height="60" rx="8" fill="#FCFDFD"/>
<path d="M196.5 72C197.881 72 199 70.8807 199 69.5C199 68.1193 197.881 67 196.5 67C195.119 67 194 68.1193 194 69.5C194 70.8807 195.119 72 196.5 72Z" stroke="#7C4FC4" stroke-width="2" stroke-linecap="round" stroke-linejoin="round"/>
<path d="M186 80.0002L194.738 71.2627" stroke="#7C4FC4" stroke-width="2" stroke-linecap="round" stroke-linejoin="round"/>
<path d="M186 80L203.438 77.1C203.61 77.0706 203.771 76.9962 203.905 76.8842C204.039 76.7722 204.141 76.6267 204.2 76.4625L207 69L197 59L189.537 61.8C189.373 61.8626 189.228 61.9671 189.116 62.103C189.004 62.2389 188.93 62.4016 188.9 62.575L186 80Z" stroke="#7C4FC4" stroke-width="2" stroke-linecap="round" stroke-linejoin="round"/>
<path d="M207 68.9999L210.288 65.7124C210.382 65.6193 210.457 65.5084 210.508 65.3861C210.559 65.2638 210.586 65.1325 210.586 64.9999C210.586 64.8673 210.559 64.736 210.508 64.6137C210.457 64.4914 210.382 64.3804 210.288 64.2874L201.712 55.7124C201.619 55.6179 201.509 55.5429 201.386 55.4917C201.264 55.4404 201.133 55.4141 201 55.4141C200.867 55.4141 200.736 55.4404 200.614 55.4917C200.491 55.5429 200.381 55.6179 200.288 55.7124L197 58.9999" stroke="#7C4FC4" stroke-width="2" stroke-linecap="round" stroke-linejoin="round"/>
<rect x="168.5" y="38.5" width="59" height="59" rx="7.5" stroke="black" stroke-opacity="0.12"/>
<rect x="252" y="38" width="60" height="60" rx="8" fill="#FCFDFD"/>
<path d="M282 59C272 59 268 68 268 68C268 68 272 77 282 77C292 77 296 68 296 68C296 68 292 59 282 59Z" stroke="#7C4FC4" stroke-width="2" stroke-linecap="round" stroke-linejoin="round"/>
<path d="M282 73C284.761 73 287 70.7614 287 68C287 65.2386 284.761 63 282 63C279.239 63 277 65.2386 277 68C277 70.7614 279.239 73 282 73Z" stroke="#7C4FC4" stroke-width="2" stroke-linecap="round" stroke-linejoin="round"/>
<rect x="252.5" y="38.5" width="59" height="59" rx="7.5" stroke="black" stroke-opacity="0.12"/>
<rect x="336" y="38" width="60" height="60" rx="8" fill="#FCFDFD"/>
<path d="M369 76L360 59L351 76" stroke="#7C4FC4" stroke-width="2" stroke-linecap="round" stroke-linejoin="round"/>
<path d="M376 76.3623C378.209 76.3623 380 74.7953 380 72.8623C380 70.9293 378.209 69.3623 376 69.3623C373.791 69.3623 372 70.9293 372 72.8623C372 74.7953 373.791 76.3623 376 76.3623Z" stroke="#7C4FC4" stroke-width="2" stroke-linecap="round" stroke-linejoin="round"/>
<path d="M373 66.0501C373.806 65.2764 374.883 64.85 376 64.8626C378.213 64.8626 380 66.4251 380 68.3626V76.0001" stroke="#7C4FC4" stroke-width="2" stroke-linecap="round" stroke-linejoin="round"/>
<path d="M366.35 71H353.65" stroke="#7C4FC4" stroke-width="2" stroke-linecap="round" stroke-linejoin="round"/>
<rect x="336.5" y="38.5" width="59" height="59" rx="7.5" stroke="black" stroke-opacity="0.12"/>
</g>
</svg>
