<svg width="396" height="136" viewBox="0 0 396 136" fill="none" xmlns="http://www.w3.org/2000/svg">
<g opacity="0.9">
<rect y="38" width="60" height="60" rx="8" fill="#FCFDFD"/>
<path d="M33 65.5H37" stroke="#8B65C9" stroke-width="2" stroke-linecap="round" stroke-linejoin="round"/>
<path d="M23 65.5H27" stroke="#8B65C9" stroke-width="2" stroke-linecap="round" stroke-linejoin="round"/>
<path d="M25 63.5V67.5" stroke="#8B65C9" stroke-width="2" stroke-linecap="round" stroke-linejoin="round"/>
<path d="M35.5001 58.9624L24.5001 58.9999C22.9722 59.0028 21.4941 59.5428 20.3241 60.5254C19.1542 61.5079 18.3669 62.8706 18.1001 64.3749V64.3749L16.0501 74.8874C15.9184 75.6215 16.0248 76.3785 16.3535 77.0479C16.6823 77.7174 17.2163 78.2643 17.8777 78.609C18.5391 78.9536 19.2933 79.078 20.0304 78.9639C20.7674 78.8499 21.4488 78.5034 21.9751 77.9749V77.9749L27.3751 71.9999L35.5001 71.9624C37.224 71.9624 38.8773 71.2776 40.0963 70.0586C41.3152 68.8396 42.0001 67.1863 42.0001 65.4624C42.0001 63.7385 41.3152 62.0852 40.0963 60.8662C38.8773 59.6472 37.224 58.9624 35.5001 58.9624V58.9624Z" stroke="#8B65C9" stroke-width="2" stroke-linecap="round" stroke-linejoin="round"/>
<path d="M41.9 64.3374L43.95 74.8874C44.0816 75.6215 43.9753 76.3785 43.6465 77.0479C43.3178 77.7174 42.7838 78.2643 42.1224 78.609C41.4609 78.9536 40.7067 79.078 39.9697 78.9639C39.2326 78.8499 38.5513 78.5034 38.025 77.9749V77.9749L32.625 71.9749" stroke="#8B65C9" stroke-width="2" stroke-linecap="round" stroke-linejoin="round"/>
<rect x="0.5" y="38.5" width="59" height="59" rx="7.5" stroke="black" stroke-opacity="0.12"/>
<rect x="84" y="38" width="60" height="60" rx="8" fill="#FCFDFD"/>
<path d="M126.188 67.9999H122.188C121.657 67.9999 121.148 68.2106 120.773 68.5857C120.398 68.9608 120.188 69.4695 120.188 69.9999V74.9999C120.188 75.5304 120.398 76.0391 120.773 76.4141C121.148 76.7892 121.657 76.9999 122.188 76.9999H124.188C124.718 76.9999 125.227 76.7892 125.602 76.4141C125.977 76.0391 126.188 75.5304 126.188 74.9999V67.9999ZM126.188 67.9999C126.188 66.4156 125.874 64.847 125.265 63.3845C124.655 61.922 123.762 60.5947 122.638 59.4791C121.513 58.3635 120.178 57.4817 118.71 56.8845C117.243 56.2874 115.672 55.9867 114.087 55.9999C112.504 55.9884 110.934 56.2903 109.468 56.8881C108.002 57.486 106.669 58.3681 105.546 59.4836C104.422 60.599 103.53 61.9258 102.922 63.3874C102.313 64.8491 102 66.4167 102 67.9999V74.9999C102 75.5304 102.211 76.0391 102.586 76.4141C102.961 76.7892 103.47 76.9999 104 76.9999H106C106.53 76.9999 107.039 76.7892 107.414 76.4141C107.789 76.0391 108 75.5304 108 74.9999V69.9999C108 69.4695 107.789 68.9608 107.414 68.5857C107.039 68.2106 106.53 67.9999 106 67.9999H102" stroke="#8B65C9" stroke-width="2" stroke-linecap="round" stroke-linejoin="round"/>
<path d="M126.188 75V78C126.188 79.0609 125.766 80.0783 125.016 80.8284C124.266 81.5786 123.248 82 122.188 82H115" stroke="#8B65C9" stroke-width="2" stroke-linecap="round" stroke-linejoin="round"/>
<rect x="84.5" y="38.5" width="59" height="59" rx="7.5" stroke="black" stroke-opacity="0.12"/>
<rect x="168" y="38" width="60" height="60" rx="8" fill="#FCFDFD"/>
<path d="M209 68V74" stroke="#8B65C9" stroke-width="2" stroke-linecap="round" stroke-linejoin="round"/>
<path d="M206 71H212" stroke="#8B65C9" stroke-width="2" stroke-linecap="round" stroke-linejoin="round"/>
<path d="M192.5 57V62" stroke="#8B65C9" stroke-width="2" stroke-linecap="round" stroke-linejoin="round"/>
<path d="M190 59.5H195" stroke="#8B65C9" stroke-width="2" stroke-linecap="round" stroke-linejoin="round"/>
<path d="M203 75V79" stroke="#8B65C9" stroke-width="2" stroke-linecap="round" stroke-linejoin="round"/>
<path d="M201 77H205" stroke="#8B65C9" stroke-width="2" stroke-linecap="round" stroke-linejoin="round"/>
<path d="M205.303 56.7038L186.715 75.2919C186.325 75.6824 186.325 76.3156 186.715 76.7061L189.301 79.2915C189.691 79.682 190.324 79.682 190.715 79.2915L209.303 60.7034C209.693 60.3129 209.693 59.6797 209.303 59.2892L206.718 56.7038C206.327 56.3133 205.694 56.3133 205.303 56.7038Z" stroke="#8B65C9" stroke-width="2" stroke-linecap="round" stroke-linejoin="round"/>
<path d="M200 62L204 66" stroke="#8B65C9" stroke-width="2" stroke-linecap="round" stroke-linejoin="round"/>
<rect x="168.5" y="38.5" width="59" height="59" rx="7.5" stroke="black" stroke-opacity="0.12"/>
<rect x="252" y="38" width="60" height="60" rx="8" fill="#FCFDFD"/>
<path d="M275.525 68.525L285.025 57.025L293 57L292.975 64.975L281.475 74.475" stroke="#8B65C9" stroke-width="2" stroke-linecap="round" stroke-linejoin="round"/>
<path d="M278.5 71.5L286 64" stroke="#8B65C9" stroke-width="2" stroke-linecap="round" stroke-linejoin="round"/>
<path d="M276.262 76.6874L272.525 80.4249C272.338 80.6119 272.084 80.7169 271.819 80.7169C271.554 80.7169 271.3 80.6119 271.112 80.4249L269.575 78.8874C269.388 78.6999 269.283 78.4459 269.283 78.1811C269.283 77.9163 269.388 77.6624 269.575 77.4749L273.312 73.7374C273.407 73.6443 273.482 73.5334 273.533 73.4111C273.584 73.2888 273.611 73.1575 273.611 73.0249C273.611 72.8923 273.584 72.761 273.533 72.6387C273.482 72.5164 273.407 72.4054 273.312 72.3124L270.712 69.7124C270.618 69.6193 270.543 69.5084 270.492 69.3861C270.441 69.2638 270.414 69.1325 270.414 68.9999C270.414 68.8673 270.441 68.736 270.492 68.6137C270.543 68.4914 270.618 68.3804 270.712 68.2874L272.287 66.7124C272.381 66.6179 272.491 66.5429 272.614 66.4917C272.736 66.4404 272.867 66.4141 273 66.4141C273.133 66.4141 273.264 66.4404 273.386 66.4917C273.509 66.5429 273.619 66.6179 273.712 66.7124L283.287 76.2874C283.382 76.3804 283.457 76.4914 283.508 76.6137C283.559 76.736 283.586 76.8673 283.586 76.9999C283.586 77.1325 283.559 77.2638 283.508 77.3861C283.457 77.5084 283.382 77.6193 283.287 77.7124L281.712 79.2874C281.619 79.3819 281.509 79.4569 281.386 79.5081C281.264 79.5593 281.133 79.5857 281 79.5857C280.867 79.5857 280.736 79.5593 280.614 79.5081C280.491 79.4569 280.381 79.3819 280.287 79.2874L277.687 76.6874C277.594 76.5929 277.484 76.5179 277.361 76.4667C277.239 76.4154 277.108 76.3891 276.975 76.3891C276.842 76.3891 276.711 76.4154 276.589 76.4667C276.466 76.5179 276.356 76.5929 276.262 76.6874Z" stroke="#8B65C9" stroke-width="2" stroke-linecap="round" stroke-linejoin="round"/>
<rect x="252.5" y="38.5" width="59" height="59" rx="7.5" stroke="black" stroke-opacity="0.12"/>
<g opacity="0.9">
<rect x="336" y="38" width="60" height="60" rx="8" fill="#FCFDFD"/>
<path d="M374 79V57C374 55.8954 373.105 55 372 55H360C358.895 55 358 55.8954 358 57V79C358 80.1046 358.895 81 360 81H372C373.105 81 374 80.1046 374 79Z" stroke="#8B65C9" stroke-width="2" stroke-linecap="round" stroke-linejoin="round"/>
<path d="M366 61C366.828 61 367.5 60.3284 367.5 59.5C367.5 58.6716 366.828 58 366 58C365.172 58 364.5 58.6716 364.5 59.5C364.5 60.3284 365.172 61 366 61Z" fill="#8B65C9"/>
<rect x="336.5" y="38.5" width="59" height="59" rx="7.5" stroke="black" stroke-opacity="0.12"/>
</g>
</g>
</svg>
